<svg xmlns="http://www.w3.org/2000/svg" style="cursor: move;" width="1366" height="667"><g transform="translate(-52.59334659256547,-44.48520565954499) scale(1.1095694720678448)"><path class="link" style="stroke-width: 0.5px; stroke-opacity: 1; stroke: rgb(80, 80, 80);" marker-end="" d="M559,203.5, 703,243.5"></path><path class="link" style="stroke-width: 0.5px; stroke-opacity: 1; stroke: rgb(80, 80, 80);" marker-end="" d="M559,203.5, 703,283.5"></path><path class="link" style="stroke-width: 0.5px; stroke-opacity: 1; stroke: rgb(80, 80, 80);" marker-end="" d="M559,203.5, 703,323.5"></path><path class="link" style="stroke-width: 0.5px; stroke-opacity: 1; stroke: rgb(80, 80, 80);" marker-end="" d="M559,243.5, 703,243.5"></path><path class="link" style="stroke-width: 0.5px; stroke-opacity: 1; stroke: rgb(80, 80, 80);" marker-end="" d="M559,243.5, 703,283.5"></path><path class="link" style="stroke-width: 0.5px; stroke-opacity: 1; stroke: rgb(80, 80, 80);" marker-end="" d="M559,243.5, 703,323.5"></path><path class="link" style="stroke-width: 0.5px; stroke-opacity: 1; stroke: rgb(80, 80, 80);" marker-end="" d="M559,283.5, 703,243.5"></path><path class="link" style="stroke-width: 0.5px; stroke-opacity: 1; stroke: rgb(80, 80, 80);" marker-end="" d="M559,283.5, 703,283.5"></path><path class="link" style="stroke-width: 0.5px; stroke-opacity: 1; stroke: rgb(80, 80, 80);" marker-end="" d="M559,283.5, 703,323.5"></path><path class="link" style="stroke-width: 0.5px; stroke-opacity: 1; stroke: rgb(80, 80, 80);" marker-end="" d="M559,323.5, 703,243.5"></path><path class="link" style="stroke-width: 0.5px; stroke-opacity: 1; stroke: rgb(80, 80, 80);" marker-end="" d="M559,323.5, 703,283.5"></path><path class="link" style="stroke-width: 0.5px; stroke-opacity: 1; stroke: rgb(80, 80, 80);" marker-end="" d="M559,323.5, 703,323.5"></path><path class="link" style="stroke-width: 0.5px; stroke-opacity: 1; stroke: rgb(80, 80, 80);" marker-end="" d="M559,363.5, 703,243.5"></path><path class="link" style="stroke-width: 0.5px; stroke-opacity: 1; stroke: rgb(80, 80, 80);" marker-end="" d="M559,363.5, 703,283.5"></path><path class="link" style="stroke-width: 0.5px; stroke-opacity: 1; stroke: rgb(80, 80, 80);" marker-end="" d="M559,363.5, 703,323.5"></path><path class="link" style="stroke-width: 0.5px; stroke-opacity: 1; stroke: rgb(80, 80, 80);" marker-end="" d="M703,243.5, 847,254.5"></path><path class="link" style="stroke-width: 0.5px; stroke-opacity: 1; stroke: rgb(80, 80, 80);" marker-end="" d="M703,243.5, 847,300.5"></path><path class="link" style="stroke-width: 0.5px; stroke-opacity: 1; stroke: rgb(80, 80, 80);" marker-end="" d="M703,283.5, 847,254.5"></path><path class="link" style="stroke-width: 0.5px; stroke-opacity: 1; stroke: rgb(80, 80, 80);" marker-end="" d="M703,283.5, 847,300.5"></path><path class="link" style="stroke-width: 0.5px; stroke-opacity: 1; stroke: rgb(80, 80, 80);" marker-end="" d="M703,323.5, 847,254.5"></path><path class="link" style="stroke-width: 0.5px; stroke-opacity: 1; stroke: rgb(80, 80, 80);" marker-end="" d="M703,323.5, 847,300.5"></path><path class="link" style="stroke-width: 0.5px; stroke-opacity: 1; stroke: rgb(80, 80, 80);" marker-end="" d="M559,403.5, 703,243.5"></path><path class="link" style="stroke-width: 0.5px; stroke-opacity: 1; stroke: rgb(80, 80, 80);" marker-end="" d="M559,403.5, 703,283.5"></path><path class="link" style="stroke-width: 0.5px; stroke-opacity: 1; stroke: rgb(80, 80, 80);" marker-end="" d="M559,403.5, 703,323.5"></path><path class="link" style="stroke-width: 0.5px; stroke-opacity: 1; stroke: rgb(80, 80, 80);" marker-end="" d="M559,443.5, 703,243.5"></path><path class="link" style="stroke-width: 0.5px; stroke-opacity: 1; stroke: rgb(80, 80, 80);" marker-end="" d="M559,443.5, 703,283.5"></path><path class="link" style="stroke-width: 0.5px; stroke-opacity: 1; stroke: rgb(80, 80, 80);" marker-end="" d="M559,443.5, 703,323.5"></path><path class="link" style="stroke-width: 0.5px; stroke-opacity: 1; stroke: rgb(80, 80, 80);" marker-end="" d="M559,203.5, 703,363.5"></path><path class="link" style="stroke-width: 0.5px; stroke-opacity: 1; stroke: rgb(80, 80, 80);" marker-end="" d="M559,243.5, 703,363.5"></path><path class="link" style="stroke-width: 0.5px; stroke-opacity: 1; stroke: rgb(80, 80, 80);" marker-end="" d="M559,283.5, 703,363.5"></path><path class="link" style="stroke-width: 0.5px; stroke-opacity: 1; stroke: rgb(80, 80, 80);" marker-end="" d="M559,323.5, 703,363.5"></path><path class="link" style="stroke-width: 0.5px; stroke-opacity: 1; stroke: rgb(80, 80, 80);" marker-end="" d="M559,363.5, 703,363.5"></path><path class="link" style="stroke-width: 0.5px; stroke-opacity: 1; stroke: rgb(80, 80, 80);" marker-end="" d="M559,403.5, 703,363.5"></path><path class="link" style="stroke-width: 0.5px; stroke-opacity: 1; stroke: rgb(80, 80, 80);" marker-end="" d="M559,443.5, 703,363.5"></path><path class="link" style="stroke-width: 0.5px; stroke-opacity: 1; stroke: rgb(80, 80, 80);" marker-end="" d="M703,363.5, 847,254.5"></path><path class="link" style="stroke-width: 0.5px; stroke-opacity: 1; stroke: rgb(80, 80, 80);" marker-end="" d="M703,363.5, 847,300.5"></path><path class="link" style="stroke-width: 0.5px; stroke-opacity: 1; stroke: rgb(80, 80, 80);" marker-end="" d="M559,203.5, 703,403.5"></path><path class="link" style="stroke-width: 0.5px; stroke-opacity: 1; stroke: rgb(80, 80, 80);" marker-end="" d="M559,243.5, 703,403.5"></path><path class="link" style="stroke-width: 0.5px; stroke-opacity: 1; stroke: rgb(80, 80, 80);" marker-end="" d="M559,283.5, 703,403.5"></path><path class="link" style="stroke-width: 0.5px; stroke-opacity: 1; stroke: rgb(80, 80, 80);" marker-end="" d="M559,323.5, 703,403.5"></path><path class="link" style="stroke-width: 0.5px; stroke-opacity: 1; stroke: rgb(80, 80, 80);" marker-end="" d="M559,363.5, 703,403.5"></path><path class="link" style="stroke-width: 0.5px; stroke-opacity: 1; stroke: rgb(80, 80, 80);" marker-end="" d="M559,403.5, 703,403.5"></path><path class="link" style="stroke-width: 0.5px; stroke-opacity: 1; stroke: rgb(80, 80, 80);" marker-end="" d="M559,443.5, 703,403.5"></path><path class="link" style="stroke-width: 0.5px; stroke-opacity: 1; stroke: rgb(80, 80, 80);" marker-end="" d="M703,403.5, 847,254.5"></path><path class="link" style="stroke-width: 0.5px; stroke-opacity: 1; stroke: rgb(80, 80, 80);" marker-end="" d="M703,403.5, 847,300.5"></path><path class="link" style="stroke-width: 0.5px; stroke-opacity: 1; stroke: rgb(80, 80, 80);" marker-end="" d="M703,243.5, 847,346.5"></path><path class="link" style="stroke-width: 0.5px; stroke-opacity: 1; stroke: rgb(80, 80, 80);" marker-end="" d="M703,283.5, 847,346.5"></path><path class="link" style="stroke-width: 0.5px; stroke-opacity: 1; stroke: rgb(80, 80, 80);" marker-end="" d="M703,323.5, 847,346.5"></path><path class="link" style="stroke-width: 0.5px; stroke-opacity: 1; stroke: rgb(80, 80, 80);" marker-end="" d="M703,363.5, 847,346.5"></path><path class="link" style="stroke-width: 0.5px; stroke-opacity: 1; stroke: rgb(80, 80, 80);" marker-end="" d="M703,403.5, 847,346.5"></path><path class="link" style="stroke-width: 0.5px; stroke-opacity: 1; stroke: rgb(80, 80, 80);" marker-end="" d="M703,243.5, 847,392.5"></path><path class="link" style="stroke-width: 0.5px; stroke-opacity: 1; stroke: rgb(80, 80, 80);" marker-end="" d="M703,283.5, 847,392.5"></path><path class="link" style="stroke-width: 0.5px; stroke-opacity: 1; stroke: rgb(80, 80, 80);" marker-end="" d="M703,323.5, 847,392.5"></path><path class="link" style="stroke-width: 0.5px; stroke-opacity: 1; stroke: rgb(80, 80, 80);" marker-end="" d="M703,363.5, 847,392.5"></path><path class="link" style="stroke-width: 0.5px; stroke-opacity: 1; stroke: rgb(80, 80, 80);" marker-end="" d="M703,403.5, 847,392.5"></path><circle r="10" class="node" id="0_0" style="fill: rgb(0, 202, 255); stroke: rgb(51, 51, 51);" cx="559" cy="203.5"></circle><circle r="10" class="node" id="0_1" style="fill: rgb(0, 202, 255); stroke: rgb(51, 51, 51);" cx="559" cy="243.5"></circle><circle r="10" class="node" id="0_2" style="fill: rgb(0, 202, 255); stroke: rgb(51, 51, 51);" cx="559" cy="283.5"></circle><circle r="10" class="node" id="0_3" style="fill: rgb(0, 202, 255); stroke: rgb(51, 51, 51);" cx="559" cy="323.5"></circle><circle r="10" class="node" id="0_4" style="fill: rgb(0, 202, 255); stroke: rgb(51, 51, 51);" cx="559" cy="363.5"></circle><circle r="10" class="node" id="0_5" style="fill: rgb(0, 202, 255); stroke: rgb(51, 51, 51);" cx="559" cy="403.5"></circle><circle r="10" class="node" id="0_6" style="fill: rgb(0, 202, 255); stroke: rgb(51, 51, 51);" cx="559" cy="443.5"></circle><circle r="10" class="node" id="1_0" style="fill: rgb(0, 202, 255); stroke: rgb(51, 51, 51);" cx="703" cy="243.5"></circle><circle r="10" class="node" id="1_1" style="fill: rgb(0, 202, 255); stroke: rgb(51, 51, 51);" cx="703" cy="283.5"></circle><circle r="10" class="node" id="1_2" style="fill: rgb(0, 202, 255); stroke: rgb(51, 51, 51);" cx="703" cy="323.5"></circle><circle r="10" class="node" id="1_3" style="fill: rgb(0, 202, 255); stroke: rgb(51, 51, 51);" cx="703" cy="363.5"></circle><circle r="10" class="node" id="1_4" style="fill: rgb(0, 202, 255); stroke: rgb(51, 51, 51);" cx="703" cy="403.5"></circle><circle r="10" class="node" id="2_0" style="fill: rgb(0, 202, 255); stroke: rgb(51, 51, 51);" cx="847" cy="254.5"></circle><circle r="10" class="node" id="2_1" style="fill: rgb(0, 202, 255); stroke: rgb(51, 51, 51);" cx="847" cy="300.5"></circle><text class="text" dy=".35em" style="font-size: 12px;" x="524" y="483.5">Input Layer ∈ ℝ⁷</text><text class="text" dy=".35em" style="font-size: 12px;" x="668" y="483.5">Hidden Layer ∈ ℝ⁵</text><text class="text" dy=".35em" style="font-size: 12px;" x="812" y="483.5">Output Layer ∈ ℝ⁴</text><circle r="10" class="node" id="2_2" style="fill: rgb(0, 202, 255); stroke: rgb(51, 51, 51);" cx="847" cy="346.5"></circle><circle r="10" class="node" id="2_3" style="fill: rgb(0, 202, 255); stroke: rgb(51, 51, 51);" cx="847" cy="392.5"></circle></g><defs><marker id="arrow" viewBox="0 -5 10 10" markerWidth="7" markerHeight="7" orient="auto" refX="40"><path d="M0,-5L10,0L0,5" style="stroke: rgb(80, 80, 80); fill: none;"></path></marker></defs></svg>